<svg width="35" height="35" viewBox="0 0 35 35" fill="none" xmlns="http://www.w3.org/2000/svg">
<path d="M17.5 24.389C21.3046 24.389 24.3889 21.3047 24.3889 17.5001C24.3889 13.6955 21.3046 10.6112 17.5 10.6112C13.6954 10.6112 10.6111 13.6955 10.6111 17.5001C10.6111 21.3047 13.6954 24.389 17.5 24.389Z" stroke="white" stroke-width="3" stroke-linecap="round" stroke-linejoin="round"/>
<path d="M2 24.3889V10.6111C2 5.85533 5.85533 2 10.6111 2H24.3889C29.1446 2 33 5.85533 33 10.6111V24.3889C33 29.1446 29.1446 33 24.3889 33H10.6111C5.85533 33 2 29.1446 2 24.3889Z" stroke="white" stroke-width="3"/>
<path d="M26.9722 8.0456L26.99 8.02576" stroke="white" stroke-width="3" stroke-linecap="round" stroke-linejoin="round"/>
</svg>
