<svg width="35" height="29" viewBox="0 0 35 29" fill="none" xmlns="http://www.w3.org/2000/svg">
<path d="M33 1.51458C33 1.51458 30.1566 3.24191 28.5755 3.73151C27.7268 2.72811 26.5989 2.01692 25.3444 1.69413C24.0899 1.37136 22.7693 1.45254 21.5611 1.92674C20.353 2.40093 19.3155 3.24523 18.5892 4.34545C17.8628 5.44569 17.4827 6.74875 17.5 8.07843V9.5274C15.0237 9.59342 12.57 9.02868 10.3573 7.88346C8.14468 6.73823 6.24181 5.04809 4.81818 2.96355C4.81818 2.96355 -0.818182 16.0044 11.8636 21.8003C8.96166 23.8258 5.50463 24.8415 2 24.6982C14.6818 31.9431 30.1818 24.6982 30.1818 8.03496C30.1805 7.63135 30.1428 7.22874 30.0691 6.83231C31.5072 5.3739 33 1.51458 33 1.51458Z" stroke="white" stroke-width="3" stroke-linecap="round" stroke-linejoin="round"/>
</svg>
